<svg width="97" height="97" viewBox="0 0 97 97" fill="none" xmlns="http://www.w3.org/2000/svg">
<circle cx="48.2515" cy="48.2495" r="36.5972" fill="#0031FF"/>
<g clip-path="url(#clip0_3221_61179)">
<path d="M28.7894 50.0746C28.3209 49.2627 27.2827 48.9844 26.4707 49.4534C25.6588 49.9219 25.3805 50.9601 25.8495 51.772L28.6785 56.6718C31.022 60.7309 36.2126 62.1222 40.2717 59.7781C44.3307 57.4345 45.722 52.2439 43.3779 48.1849L41.1147 44.265C40.6462 43.4531 39.608 43.1748 38.796 43.6438C37.9841 44.1123 37.7063 45.1505 38.1748 45.9624L37.609 44.9825C37.1406 44.1706 36.1023 43.8922 35.2904 44.3612C34.4785 44.8297 34.2001 45.868 34.6692 46.6799L34.1034 45.6999C33.6349 44.888 32.5966 44.6096 31.7847 45.0787C30.9728 45.5471 30.6944 46.5854 31.1635 47.3973L27.2029 40.5376C26.7344 39.7257 25.6962 39.4473 24.8843 39.9163C24.0724 40.3848 23.794 41.4231 24.263 42.235L30.7697 53.5051L28.7894 50.0746Z" stroke="white" stroke-width="2.26319" stroke-miterlimit="10" stroke-linecap="round" stroke-linejoin="round"/>
<path d="M29.2402 37.9435C33.9165 35.5564 39.7867 36.3197 43.6997 40.2327" stroke="white" stroke-width="1.13159" stroke-miterlimit="10" stroke-linecap="round" stroke-linejoin="round"/>
<path d="M29.2402 36.0215V38.2847L31.5034 38.8505" stroke="white" stroke-width="1.13159" stroke-miterlimit="10" stroke-linecap="round" stroke-linejoin="round"/>
</g>
<g clip-path="url(#clip1_3221_61179)">
<path d="M64.9112 45.2491C65.3797 44.4372 65.1019 43.3989 64.29 42.9304C63.478 42.462 62.4398 42.7398 61.9713 43.5517L59.1423 48.4515C56.7988 52.5105 58.1895 57.7011 62.2486 60.0447C66.3076 62.3882 71.4982 60.9975 73.8417 56.9384L76.1049 53.0186C76.5734 52.2067 76.2956 51.1684 75.4837 50.7C74.6718 50.2315 73.6335 50.5093 73.165 51.3212L73.7308 50.3412C74.1993 49.5293 73.9215 48.4911 73.1096 48.0226C72.2977 47.5541 71.2594 47.8319 70.791 48.6439L71.3568 47.6639C71.8252 46.852 71.5474 45.8137 70.7355 45.3453C69.9236 44.8768 68.8854 45.1546 68.4169 45.9665L72.3775 39.1068C72.8459 38.2949 72.5681 37.2566 71.7562 36.7882C70.9443 36.3197 69.906 36.5975 69.4376 37.4094L62.9309 48.6795L64.9112 45.2491Z" stroke="white" stroke-width="2.26319" stroke-miterlimit="10" stroke-linecap="round" stroke-linejoin="round"/>
<path d="M65.8982 37.9433C61.6536 35.7768 56.4257 36.2057 52.5703 39.2293" stroke="white" stroke-width="1.13159" stroke-miterlimit="10" stroke-linecap="round" stroke-linejoin="round"/>
<path d="M66.1499 36.0215V38.2847L63.8867 38.8505" stroke="white" stroke-width="1.13159" stroke-miterlimit="10" stroke-linecap="round" stroke-linejoin="round"/>
</g>
<circle cx="48.166" cy="48.166" r="47.3891" stroke="#0031FF" stroke-width="1.55374"/>
<defs>
<clipPath id="clip0_3221_61179">
<rect width="28.2898" height="28.2898" fill="white" transform="translate(20.0742 34.3242)"/>
</clipPath>
<clipPath id="clip1_3221_61179">
<rect width="28.2898" height="28.2898" fill="white" transform="translate(50.3066 34.3242)"/>
</clipPath>
</defs>
</svg>
